# This file uses centimeters as units for non-parametric coordinates.

mtllib straightHall.mtl
g default
v -1.590604 -2.770566 -3.116896
v -1.590604 -2.770566 3.116896
v 1.701502 -2.770566 3.116896
v 1.701502 -2.770566 -3.116896
v 1.701502 0.796778 3.116896
v 1.701502 0.796778 -3.116896
v -1.590604 0.796778 3.116896
v -1.590604 0.796778 -3.116896
v -3.116896 -3.116896 -3.116896
v -3.116896 -3.116896 3.116896
v -3.116896 3.116896 3.116896
v -3.116896 3.116896 -3.116896
v 3.116896 -3.116896 3.116896
v 3.116896 -3.116896 -3.116896
v 3.116896 3.116896 -3.116896
v 3.116896 3.116896 3.116896
vt 0.375000 0.000000
vt 0.625000 0.000000
vt 0.375000 0.250000
vt 0.625000 0.250000
vt 0.375000 0.500000
vt 0.625000 0.500000
vt 0.375000 0.750000
vt 0.625000 0.750000
vt 0.375000 1.000000
vt 0.625000 1.000000
vt 0.875000 0.000000
vt 0.875000 0.250000
vt 0.125000 0.000000
vt 0.125000 0.250000
vt 0.625000 0.762139
vt 0.625000 0.985101
vt 0.375000 0.985101
vt 0.375000 0.762139
vt 0.862861 0.250000
vt 0.639899 0.250000
vt 0.639899 0.000000
vt 0.862861 0.000000
vt 0.375000 0.487861
vt 0.375000 0.264899
vt 0.625000 0.264899
vt 0.625000 0.487861
vt 0.137139 0.000000
vt 0.360101 0.000000
vt 0.360101 0.250000
vt 0.137139 0.250000
vt 0.436210 0.736111
vt 0.436210 0.593046
vt 0.568237 0.593046
vt 0.568237 0.736111
vt 0.436210 0.156954
vt 0.436210 0.013889
vt 0.568237 0.013889
vt 0.568237 0.156954
vn 0.000000 1.000000 0.000000
vn 0.000000 1.000000 0.000000
vn 0.000000 1.000000 0.000000
vn 0.000000 1.000000 0.000000
vn -1.000000 0.000000 0.000000
vn -1.000000 0.000000 0.000000
vn -1.000000 0.000000 0.000000
vn -1.000000 0.000000 0.000000
vn 0.000000 -1.000000 0.000000
vn 0.000000 -1.000000 0.000000
vn 0.000000 -1.000000 0.000000
vn 0.000000 -1.000000 0.000000
vn 1.000000 -0.000000 0.000000
vn 1.000000 -0.000000 0.000000
vn 1.000000 -0.000000 0.000000
vn 1.000000 -0.000000 0.000000
vn -1.000000 0.000000 0.000000
vn -1.000000 0.000000 0.000000
vn -1.000000 0.000000 0.000000
vn -1.000000 0.000000 0.000000
vn 1.000000 0.000000 0.000000
vn 1.000000 0.000000 0.000000
vn 1.000000 0.000000 0.000000
vn 1.000000 0.000000 0.000000
vn 0.000000 -1.000000 0.000000
vn 0.000000 -1.000000 0.000000
vn 0.000000 -1.000000 0.000000
vn 0.000000 -1.000000 0.000000
vn 0.000000 0.000000 -1.000000
vn 0.000000 0.000000 -1.000000
vn 0.000000 0.000000 -1.000000
vn 0.000000 0.000000 -1.000000
vn 0.000000 0.000000 -1.000000
vn 0.000000 0.000000 -1.000000
vn 0.000000 0.000000 -1.000000
vn 0.000000 0.000000 -1.000000
vn 0.000000 1.000000 0.000000
vn 0.000000 1.000000 0.000000
vn 0.000000 1.000000 0.000000
vn 0.000000 1.000000 0.000000
vn 0.000000 0.000000 1.000000
vn 0.000000 0.000000 1.000000
vn 0.000000 0.000000 1.000000
vn 0.000000 0.000000 1.000000
vn 0.000000 0.000000 1.000000
vn 0.000000 0.000000 1.000000
vn 0.000000 0.000000 1.000000
vn 0.000000 0.000000 1.000000
s off
g polySurface1
usemtl initialShadingGroup
f 1/18/1 2/17/2 3/16/3 4/15/4
f 4/22/5 3/21/6 5/20/7 6/19/8
f 6/26/9 5/25/10 7/24/11 8/23/12
f 8/30/13 7/29/14 2/28/15 1/27/16
f 9/13/17 10/1/18 11/3/19 12/14/20
f 13/2/21 14/11/22 15/12/23 16/4/24
f 9/7/25 14/8/26 13/10/27 10/9/28
f 12/5/29 15/6/30 14/8/31 9/7/32 4/34/33 6/33/34 8/32/35 1/31/36
f 11/3/37 16/4/38 15/6/39 12/5/40
f 10/1/41 13/2/42 16/4/43 11/3/44 5/38/45 3/37/46 2/36/47 7/35/48
